<mxfile host="app.diagrams.net" modified="2023-12-05T23:53:58.880Z" agent="Mozilla/5.0 (Macintosh; Intel Mac OS X 10_15_7) AppleWebKit/605.1.15 (KHTML, like Gecko) Version/17.1.2 Safari/605.1.15" etag="BdOMVi6avTWPY9IizuW9" version="22.1.5" type="github">
  <diagram name="Page-1" id="XH8o1IDt71k7ToOQpQLz">
    <mxGraphModel dx="954" dy="622" grid="1" gridSize="10" guides="1" tooltips="1" connect="1" arrows="1" fold="1" page="1" pageScale="1" pageWidth="850" pageHeight="1100" math="0" shadow="0">
      <root>
        <mxCell id="0" />
        <mxCell id="1" parent="0" />
        <mxCell id="RHWd82dlNmuR0SWpL10g-8" value="" style="rounded=0;whiteSpace=wrap;html=1;" vertex="1" parent="1">
          <mxGeometry x="40" y="30" width="730" height="570" as="geometry" />
        </mxCell>
        <mxCell id="RHWd82dlNmuR0SWpL10g-4" value="&amp;lt;&amp;lt;subsystem&amp;gt;&amp;gt;&lt;br&gt;&lt;font face=&quot;Helvetica&quot;&gt;User Management&lt;/font&gt;" style="verticalAlign=top;align=left;spacingTop=8;spacingLeft=2;spacingRight=12;shape=cube;size=10;direction=south;fontStyle=4;html=1;whiteSpace=wrap;" vertex="1" parent="1">
          <mxGeometry x="50" y="40" width="240" height="200" as="geometry" />
        </mxCell>
        <mxCell id="RHWd82dlNmuR0SWpL10g-5" value="&amp;lt;&amp;lt;subsystem&amp;gt;&amp;gt;&lt;br&gt;ED Services" style="verticalAlign=top;align=left;spacingTop=8;spacingLeft=2;spacingRight=12;shape=cube;size=10;direction=south;fontStyle=4;html=1;whiteSpace=wrap;" vertex="1" parent="1">
          <mxGeometry x="520" y="40" width="240" height="200" as="geometry" />
        </mxCell>
        <mxCell id="RHWd82dlNmuR0SWpL10g-6" value="&amp;lt;&amp;lt;subsystem&amp;gt;&amp;gt;&lt;br&gt;Appointment Booking" style="verticalAlign=top;align=left;spacingTop=8;spacingLeft=2;spacingRight=12;shape=cube;size=10;direction=south;fontStyle=4;html=1;whiteSpace=wrap;" vertex="1" parent="1">
          <mxGeometry x="290" y="390" width="240" height="200" as="geometry" />
        </mxCell>
        <mxCell id="RHWd82dlNmuR0SWpL10g-9" value="uses" style="html=1;verticalAlign=bottom;endArrow=classic;dashed=1;endSize=8;curved=0;rounded=0;exitX=0;exitY=0;exitDx=105;exitDy=240;exitPerimeter=0;endFill=1;" edge="1" parent="1" source="RHWd82dlNmuR0SWpL10g-5" target="RHWd82dlNmuR0SWpL10g-4">
          <mxGeometry x="-0.0001" relative="1" as="geometry">
            <mxPoint x="440" y="320" as="sourcePoint" />
            <mxPoint x="360" y="320" as="targetPoint" />
            <mxPoint as="offset" />
          </mxGeometry>
        </mxCell>
        <mxCell id="RHWd82dlNmuR0SWpL10g-12" value="uses" style="html=1;verticalAlign=bottom;endArrow=classic;dashed=1;endSize=8;curved=0;rounded=0;exitX=0;exitY=0;exitDx=0;exitDy=230;exitPerimeter=0;entryX=0;entryY=0;entryDx=200;entryDy=125;entryPerimeter=0;endFill=1;" edge="1" parent="1" source="RHWd82dlNmuR0SWpL10g-6" target="RHWd82dlNmuR0SWpL10g-4">
          <mxGeometry relative="1" as="geometry">
            <mxPoint x="440" y="320" as="sourcePoint" />
            <mxPoint x="360" y="320" as="targetPoint" />
          </mxGeometry>
        </mxCell>
        <mxCell id="RHWd82dlNmuR0SWpL10g-14" value="uses" style="html=1;verticalAlign=bottom;endArrow=classic;dashed=1;endSize=8;curved=0;rounded=0;exitX=0;exitY=0.075;exitDx=0;exitDy=0;exitPerimeter=0;endFill=1;" edge="1" parent="1">
          <mxGeometry relative="1" as="geometry">
            <mxPoint x="504" y="390" as="sourcePoint" />
            <mxPoint x="580" y="240" as="targetPoint" />
          </mxGeometry>
        </mxCell>
        <mxCell id="RHWd82dlNmuR0SWpL10g-15" value="uses" style="html=1;verticalAlign=bottom;endArrow=classic;dashed=1;endSize=8;curved=0;rounded=0;exitX=1;exitY=0.617;exitDx=0;exitDy=0;exitPerimeter=0;entryX=0.2;entryY=0;entryDx=0;entryDy=0;entryPerimeter=0;endFill=1;" edge="1" parent="1" target="RHWd82dlNmuR0SWpL10g-6">
          <mxGeometry relative="1" as="geometry">
            <mxPoint x="626.9200000000001" y="240" as="sourcePoint" />
            <mxPoint x="534" y="424" as="targetPoint" />
          </mxGeometry>
        </mxCell>
      </root>
    </mxGraphModel>
  </diagram>
</mxfile>
